<svg id="Layer_1" data-name="Layer 1" xmlns="http://www.w3.org/2000/svg" viewBox="0 0 576 576"><defs><style>.cls-1{fill:#82a1c0;}.cls-2{fill:#fff;}.cls-3{fill:#8ac0cf;}.cls-4{fill:#2e3440;}</style></defs><title>CAR</title><circle class="cls-1" cx="300.97" cy="274.82" r="176.4"/><circle class="cls-2" cx="383.5" cy="312.12" r="23.12"/><circle class="cls-2" cx="227.88" cy="312.12" r="23.12"/><path class="cls-2" d="M430.88,297c-5.73.45-8.17-.79-8.16-4s2.47-4.5,8.16-4Z"/><path class="cls-3" d="M438.47,298.6a23,23,0,0,1-22.85-20.36c-.64-5.12,1.09-7.11,6.2-7.13,3.44,0,6.87,0,10.31,0,.14,0,.28-.18.63-.42a31.48,31.48,0,0,0-22-8.67c-16.32-.05-32.64-.14-49,0A44.53,44.53,0,0,1,332,251.47c-9.29-7.63-18.73-15.07-28.16-22.53a49.84,49.84,0,0,0-5.18-3.22l-.42.58,9.39,10.77.15-.1,13.28,16.23a4.16,4.16,0,0,1,2.76,4c.07,2.54-1.37,4.11-3.81,4.64a13.5,13.5,0,0,1-2.85.1c-25.67,0-51.34-.15-77,.08a77.25,77.25,0,0,1-26.06-4.27c-16.56-5.67-11.56-5.3-28.43-1.18-2.5.62-5,1.19-7.48,1.91-5.78,1.67-9.38,6.18-9.91,12.62,1.6,0,3.19,0,4.77,0a13.74,13.74,0,0,1,.14,27.46c-1.52.06-3,0-5.41,0a59.67,59.67,0,0,0,3.32,6.9,83,83,0,0,0,6.72,8.9,7,7,0,0,0,4.22,2.4c4.45.31,8.94.11,13.74.11-1.08-12,2.46-22.12,11.81-29.77,6.73-5.51,14.56-7.61,23.24-6.94,13.72,1.06,30.73,13.42,28.84,36.56h91.76C349.37,293.27,367.67,279.71,384,280c16,.28,33.47,13.77,31.4,36.92h15.11c2.48,0,5,.05,7.44,0,3.23-.09,5-1.77,5-5,.08-4.29,0-8.58,0-13.33C441.42,298.61,440,298.63,438.47,298.6Z"/><path class="cls-4" d="M259.79,266.56c1.61,0,3.24-.11,4.84,0a4.5,4.5,0,0,1,4.26,4.5,4.42,4.42,0,0,1-4.2,4.55,97.32,97.32,0,0,1-10,0,4.42,4.42,0,0,1-4.12-4.62,4.49,4.49,0,0,1,4.34-4.42C256.56,266.46,258.18,266.55,259.79,266.56Z"/><path class="cls-2" d="M425.81,280.29c4.33,0,8.41-.07,12.5.06a2.76,2.76,0,0,1,2.06,1.32c.93,2.36,1.59,4.83,2.37,7.27C435.12,290.74,427.87,287,425.81,280.29Z"/><path class="cls-2" d="M159.18,290v-9.55c3.11-.07,6.51-1.23,8.56,2a6,6,0,0,1,.32,5C166.29,291.15,162.61,289.87,159.18,290Z"/><path class="cls-2" d="M246,252.73h-4.54a52.54,52.54,0,0,1,.1-6.77c.11-.83,1.33-1.52,2-2.27.8.76,2.15,1.44,2.29,2.31A45.16,45.16,0,0,1,246,252.73Z"/><path class="cls-4" d="M241.57,312.48a13.89,13.89,0,1,1-13.81-14A13.93,13.93,0,0,1,241.57,312.48Zm-13.9,6.8a6.93,6.93,0,1,0-6.91-6.89A7,7,0,0,0,227.67,319.28Z"/><path class="cls-4" d="M383.45,298.52a13.83,13.83,0,1,1-13.84,13.87A13.85,13.85,0,0,1,383.45,298.52Zm.09,20.73a6.9,6.9,0,1,0-7-6.75A7,7,0,0,0,383.54,319.25Z"/><path class="cls-1" d="M227.67,319.28a6.93,6.93,0,1,1,6.94-6.86A7,7,0,0,1,227.67,319.28Z"/><path class="cls-1" d="M383.54,319.25a6.9,6.9,0,1,1,6.8-6.95A6.94,6.94,0,0,1,383.54,319.25Z"/><path class="cls-2" d="M168.06,287.41a6,6,0,0,0-.32-5c-2.05-3.18-5.45-2-8.56-2V290C162.61,289.87,166.29,291.15,168.06,287.41Z"/><path class="cls-2" d="M246,252.73a45.16,45.16,0,0,0-.11-6.73c-.14-.87-1.49-1.55-2.29-2.31-.71.75-1.93,1.44-2,2.27a52.54,52.54,0,0,0-.1,6.77Z"/><path class="cls-2" d="M438.31,280.35c-4.09-.13-8.17-.06-12.5-.06,2.06,6.75,9.31,10.45,16.93,8.65-.78-2.44-1.44-4.91-2.37-7.27A2.74,2.74,0,0,0,438.31,280.35Z"/><path class="cls-4" d="M232.46,252.47c0-2.33,0-4.5,0-6.68a11.44,11.44,0,1,1,22.88,0c0,2.17,0,4.34,0,6.83h61.94a15,15,0,0,1,2.85.09,4.32,4.32,0,0,1,3.82,4.34c.07,2.53-1.37,4.1-3.81,4.63a13.53,13.53,0,0,1-2.85.1c-25.65,0-51.3-.15-77,.08a77.08,77.08,0,0,1-26-4.27c-16.55-5.66-11.55-5.29-28.41-1.17-2.49.61-5,1.19-7.47,1.9-5.77,1.67-9.37,6.18-9.9,12.61,1.6,0,3.19,0,4.77,0a13.73,13.73,0,0,1,.13,27.44c-1.51.06-3,0-5.4,0a57.88,57.88,0,0,0,3.32,6.89,80.55,80.55,0,0,0,6.71,8.89,7,7,0,0,0,4.21,2.4c4.45.31,8.94.11,13.73.11-1.07-12,2.46-22.09,11.8-29.74,6.73-5.51,14.55-7.61,23.22-6.94,13.71,1.06,30.71,13.41,28.82,36.54h91.67c-2.05-23.47,16.24-37,32.53-36.73,16,.28,33.44,13.75,31.37,36.89h15.1c2.48,0,5,0,7.44,0,3.22-.09,5-1.77,5-5,.08-4.28,0-8.57,0-13.32-1.56,0-3,0-4.51,0a23,23,0,0,1-22.83-20.34c-.64-5.12,1.09-7.11,6.2-7.12l10.29,0c.14,0,.28-.18.64-.43a31.49,31.49,0,0,0-22-8.66c-16.3-.05-32.61-.14-48.91,0a44.49,44.49,0,0,1-29.75-10.52c-9.27-7.62-18.71-15.06-28.13-22.51a52.29,52.29,0,0,0-5.18-3.22l-.41.59L309.59,239a18.66,18.66,0,0,1,1.46,1.76,4.47,4.47,0,0,1-.7,6.17,4.38,4.38,0,0,1-6.2-.31c-2.06-2.11-3.93-4.41-5.88-6.63q-6.87-7.86-13.75-15.71c-1.42-1.61-2.27-3.31-1.32-5.45s2.82-2.9,5.12-2.84c2.66.07,5.34-.09,8,.09a24.15,24.15,0,0,1,13.73,5.76c9.49,7.67,19.09,15.2,28.57,22.89a34.14,34.14,0,0,0,22.4,7.91c16.31-.08,32.61,0,48.92,0,24.26,0,42.19,18,42.22,42.35q0,8,0,16c0,9.16-5.67,14.85-14.76,14.88-7.63,0-15.26,0-22.88,0a3,3,0,0,0-3.09,1.82c-12.73,22-43.22,22-55.81.07a3.28,3.28,0,0,0-3.34-1.89q-46.62.06-93.25,0a3.25,3.25,0,0,0-3.29,1.95,31.87,31.87,0,0,1-55.68.06,3.42,3.42,0,0,0-3.55-2c-4.67.14-9.34.05-14,.05a13.71,13.71,0,0,1-11.39-5.55c-2.62-3.39-5.21-6.81-7.7-10.3a21.55,21.55,0,0,1-4.16-12.55c-.07-8.87-.11-17.74,0-26.61a22.35,22.35,0,0,1,15.68-21c6.65-2,13.44-3.54,20.2-5.14a23,23,0,0,1,12.38.89c7.44,2.33,14.93,4.49,22.4,6.69A13.49,13.49,0,0,0,232.46,252.47ZM205,312a22.88,22.88,0,1,0,23.07-22.75A22.92,22.92,0,0,0,205,312Zm155.62,0a22.88,22.88,0,1,0,23.09-22.72A22.92,22.92,0,0,0,360.62,312Zm65.21-31.88c2.06,6.75,9.31,10.44,16.91,8.65-.77-2.44-1.43-4.91-2.36-7.26a2.75,2.75,0,0,0-2.06-1.33C434.24,280,430.16,280.09,425.83,280.09ZM168.49,289.2c3.21-.14,6.66,1.06,8.33-2.44a5.66,5.66,0,0,0-.31-4.69c-1.92-3-5.1-1.89-8-1.82Zm77.68-36.64a45.16,45.16,0,0,0-.11-6.73c-.14-.87-1.49-1.54-2.28-2.31-.72.76-1.94,1.44-2.05,2.27a52.55,52.55,0,0,0-.09,6.77Z"/></svg>