<svg id="Layer_1" data-name="Layer 1" xmlns="http://www.w3.org/2000/svg" viewBox="0 0 576 576"><defs><style>.cls-1{fill:#8ac0cf;}.cls-2{fill:#fff;}.cls-3{fill:#2e3440;}.cls-4{fill:#82a1c0;}</style></defs><title>CAR</title><circle class="cls-1" cx="288" cy="289.25" r="176.29"/><path class="cls-2" d="M252.53,199.59q-29.79,0-59.58,0c-10,0-17.6,5.94-20,15.59-3,12-6.09,24.07-9,36.14-1.47,6.06-3.68,12.17-3.79,18.29-.46,23.53-.24,47.07-.18,70.6A11.49,11.49,0,0,0,169,351.37a24.47,24.47,0,0,0,6.46.4c1.86-.09,2.68.52,3.49,2.25,6.51,14.05,17.63,21.72,33.08,21.7S238.43,368,245,354.1c.78-1.67,1.53-2.33,3.43-2.33q39.67.11,79.36,0c1.88,0,2.68.6,3.46,2.29,6.1,13.3,16.56,20.89,31.12,21.64,15,.77,26.55-5.92,33.57-19.22,2-3.8,3.95-4.93,8-4.77,7.18.3,12.33-5,12.36-12.2,0-12.43.09-24.87,0-37.3A51.17,51.17,0,0,0,409,276.52c-5.7-9.76-14.13-16.54-23.9-21.81a76,76,0,0,1-18.52-14.29c-9.68-10-19.69-19.73-29.51-29.62a36.58,36.58,0,0,0-27.17-11.23C290.75,199.64,271.64,199.59,252.53,199.59Z"/><path class="cls-3" d="M252.53,199.59c19.11,0,38.22,0,57.33,0A36.58,36.58,0,0,1,337,210.8c9.82,9.89,19.83,19.59,29.51,29.62a76,76,0,0,0,18.52,14.29c9.77,5.27,18.2,12,23.9,21.81a51.17,51.17,0,0,1,7.27,25.69c.12,12.43.07,24.87,0,37.3,0,7.17-5.18,12.5-12.36,12.2-4.06-.16-6,1-8,4.77-7,13.3-18.56,20-33.57,19.22-14.56-.75-25-8.34-31.12-21.64-.78-1.69-1.58-2.29-3.46-2.29q-39.67.11-79.36,0c-1.9,0-2.65.66-3.43,2.33-6.52,13.91-17.53,21.61-32.9,21.62S185.48,368.07,179,354c-.81-1.73-1.63-2.34-3.49-2.25a24.47,24.47,0,0,1-6.46-.4,11.49,11.49,0,0,1-9.09-11.15c-.06-23.53-.28-47.07.18-70.6.11-6.12,2.32-12.23,3.79-18.29,2.92-12.07,6-24.1,9-36.14,2.44-9.65,10.06-15.58,20-15.59Q222.74,199.56,252.53,199.59ZM176,343.77c-.72-10.16,1.7-19.23,8.12-27a35,35,0,0,1,25-13,34.53,34.53,0,0,1,24.81,7.4c10.5,8.25,14.76,19.35,14,32.5h80c-1.37-26,18.55-38.92,32.89-39.91,9.18-.64,17.59,1.5,24.91,7.12,10.75,8.26,15.15,19.46,14.36,32.92h3.31c3.26-.07,4.74-1.5,4.74-4.77q0-18.52,0-37c0-2-.38-4.08-.58-6.14-.89,0-1.46-.09-2-.1-11.63-.12-18.51-5.35-21.75-16.49a11.75,11.75,0,0,1,2.49-11.44c.51-.61,1.09-1.16,1.66-1.76a7.66,7.66,0,0,0-.74-.63c-1.2-.75-2.38-1.55-3.62-2.21a97,97,0,0,1-25-19.33c-8.82-9.33-18.15-18.19-27.18-27.32a29.22,29.22,0,0,0-21.77-9q-58.08.07-116.15,0c-7.09,0-11.34,3.38-13.07,10.3-3.79,15.2-7.54,30.41-11.41,45.58-1.36,5.33-1.17,10.68-1,16.22h3.46c7.32.07,12.4,5.13,12.47,12.45,0,2.67.07,5.35,0,8a12,12,0,0,1-11.57,11.57c-1.4.06-2.79,0-4.39,0,0,9.66-.07,19.07.05,28.47,0,2,1.53,3.31,3.6,3.52C173,343.88,174.39,343.77,176,343.77Zm35.91-32A28,28,0,1,0,240,339.5,28.06,28.06,0,0,0,211.93,311.77Zm152.14,56.06a28,28,0,1,0-27.91-27.9A28.13,28.13,0,0,0,364.07,367.83ZM168,303.74h2.81c3.68,0,5-1.41,5.06-5.16,0-2.24.05-4.49,0-6.73a3.84,3.84,0,0,0-3.59-4.06,33.46,33.46,0,0,0-4.26,0ZM405.3,287.49a42,42,0,0,0-8.46-14c-.76-.84-1.53-2.52-2.95-1.35-1.1.91-2.54,2.5-2.42,3.63C392.31,283.06,397.89,288.49,405.3,287.49Z"/><path class="cls-4" d="M176,343.77c-1.63,0-3,.11-4.42,0-2.07-.21-3.58-1.47-3.6-3.52-.12-9.4-.05-18.81-.05-28.47,1.6,0,3,.05,4.39,0a12,12,0,0,0,11.57-11.57c.09-2.66,0-5.34,0-8-.07-7.32-5.15-12.38-12.47-12.45H168c-.13-5.54-.32-10.89,1-16.22,3.87-15.17,7.62-30.38,11.41-45.58,1.73-6.92,6-10.3,13.07-10.3q58.06,0,116.15,0a29.22,29.22,0,0,1,21.77,9c9,9.13,18.36,18,27.18,27.32a97,97,0,0,0,25,19.33c1.24.66,2.42,1.46,3.62,2.21a7.66,7.66,0,0,1,.74.63c-.57.6-1.15,1.15-1.66,1.76a11.75,11.75,0,0,0-2.49,11.44c3.24,11.14,10.12,16.37,21.75,16.49.58,0,1.15.06,2,.1.2,2.06.57,4.1.58,6.14q.09,18.52,0,37c0,3.27-1.48,4.7-4.74,4.77h-3.31c.79-13.46-3.61-24.66-14.36-32.92-7.32-5.62-15.73-7.76-24.91-7.12-14.34,1-34.26,13.87-32.89,39.91H248c.76-13.15-3.5-24.25-14-32.5a34.53,34.53,0,0,0-24.81-7.4,35,35,0,0,0-25,13C177.72,324.54,175.3,333.61,176,343.77Zm178.43-80.34a6.64,6.64,0,0,1-.87.24q-50.56,0-101.12,0c-2.92,0-4.41-1.57-4.42-4.56q0-15.41,0-30.79c0-3.14,1.48-4.66,4.58-4.66q29.16,0,58.32,0a11.66,11.66,0,0,1,8.3,3.54c.78.76,1.48,1.6,2.3,2.29a3.85,3.85,0,0,0,5.43-.06,3.9,3.9,0,0,0,.26-5.43c-4.37-5.28-9.84-8.39-16.86-8.39q-28.92,0-57.82,0c-7.46,0-12.52,5.13-12.54,12.63q0,15.41,0,30.79c0,7.62,5.09,12.66,12.77,12.66q55.07,0,110.13,0c2.14,0,4-.31,5-2.52s-.26-3.79-1.73-5.3q-13-13.33-26-26.72a13.16,13.16,0,0,0-1.63-1.54,3.77,3.77,0,0,0-5,.25,3.84,3.84,0,0,0-.57,5.21,17.22,17.22,0,0,0,1.69,1.84ZM232,243.74c0-5.25,0-10.51,0-15.77-.06-7.18-5.16-12.3-12.31-12.35s-14,0-21,0c-6.2,0-10.69,3.49-12.2,9.45-2.64,10.42-5.27,20.84-7.82,31.28-2,8.29,3.52,15.3,12.09,15.34q14.39.07,28.79,0c7.33,0,12.43-5.12,12.49-12.43C232,254.09,232,248.92,232,243.74Zm24,32c-1.33,0-2.66-.06-4,0a4,4,0,0,0-4,3.92,3.91,3.91,0,0,0,3.88,4c2.73.11,5.48.11,8.21,0a3.92,3.92,0,0,0,3.9-4,4,4,0,0,0-4-3.93C258.7,275.65,257.37,275.71,256,275.71Z"/><path class="cls-2" d="M211.93,311.77a28,28,0,1,1-28,28.31A28.09,28.09,0,0,1,211.93,311.77ZM232,339.83a20,20,0,1,0-19.88,20A20.08,20.08,0,0,0,232,339.83Z"/><path class="cls-2" d="M364.07,367.83a28,28,0,1,1,28.15-28.18A28.1,28.1,0,0,1,364.07,367.83Zm.21-48.06A20,20,0,1,0,384.22,340,20.05,20.05,0,0,0,364.28,319.77Z"/><path class="cls-2" d="M168,303.74v-16a33.46,33.46,0,0,1,4.26,0,3.84,3.84,0,0,1,3.59,4.06c.07,2.24,0,4.49,0,6.73,0,3.75-1.38,5.13-5.06,5.16Z"/><path class="cls-2" d="M405.3,287.49c-7.41,1-13-4.43-13.83-11.72-.12-1.13,1.32-2.72,2.42-3.63,1.42-1.17,2.19.51,2.95,1.35A42,42,0,0,1,405.3,287.49Z"/><path class="cls-3" d="M232,243.74c0,5.18,0,10.35,0,15.52-.06,7.31-5.16,12.41-12.49,12.43q-14.4.06-28.79,0c-8.57,0-14.12-7.05-12.09-15.34,2.55-10.44,5.18-20.86,7.82-31.28,1.51-6,6-9.42,12.2-9.45q10.51,0,21,0c7.15,0,12.25,5.17,12.31,12.35C232,233.23,232,238.49,232,243.74Zm-8-.05c0-5.09,0-10.17,0-15.26,0-3.3-1.46-4.77-4.71-4.78-6.76,0-13.52,0-20.27,0-2.89,0-4.14.94-4.84,3.7q-3.87,15.25-7.64,30.54c-.92,3.78.74,5.79,4.64,5.79q13.89,0,27.78,0c3.62,0,5-1.4,5-5C224,253.7,224,248.7,224,243.69Z"/><path class="cls-3" d="M256,275.71c1.33,0,2.66-.06,4,0a4,4,0,0,1,4,3.93,3.92,3.92,0,0,1-3.9,4c-2.73.11-5.48.11-8.21,0a3.91,3.91,0,0,1-3.88-4,4,4,0,0,1,4-3.92C253.38,275.65,254.71,275.71,256,275.71Z"/><path class="cls-3" d="M232,339.83a20,20,0,1,1-20.07-20.06A20.08,20.08,0,0,1,232,339.83Zm-8,0a12,12,0,1,0-11.86,12A12.05,12.05,0,0,0,224,339.8Z"/><path class="cls-3" d="M364.28,319.77a20,20,0,1,1-20.12,19.74A20.08,20.08,0,0,1,364.28,319.77Zm11.91,20a12,12,0,1,0-11.88,12A12.05,12.05,0,0,0,376.19,339.81Z"/><path class="cls-2" d="M224,243.69c0,5,0,10,0,15,0,3.57-1.43,5-5,5q-13.89,0-27.78,0c-3.9,0-5.56-2-4.64-5.79q3.75-15.28,7.64-30.54c.7-2.76,1.95-3.69,4.84-3.7,6.75,0,13.51,0,20.27,0,3.25,0,4.69,1.48,4.71,4.78C224,233.52,224,238.6,224,243.69Z"/><path class="cls-1" d="M224,339.8a12,12,0,1,1-12.13-12A12,12,0,0,1,224,339.8Z"/><path class="cls-1" d="M376.19,339.81a12,12,0,1,1-12.11-12A12,12,0,0,1,376.19,339.81Z"/><polygon class="cls-2" points="248.31 221.79 248.31 263.79 354.31 263.79 313.31 220.79 248.31 221.79"/><path class="cls-3" d="M354.45,263.43l-19.88-20.49a17.22,17.22,0,0,1-1.69-1.84,3.84,3.84,0,0,1,.57-5.21,3.77,3.77,0,0,1,5-.25,13.16,13.16,0,0,1,1.63,1.54q13,13.37,26,26.72c1.47,1.51,2.68,3.05,1.73,5.3s-2.82,2.52-5,2.52q-55.07,0-110.13,0c-7.68,0-12.75-5-12.77-12.66q0-15.39,0-30.79c0-7.5,5.08-12.62,12.54-12.63q28.9,0,57.82,0c7,0,12.49,3.11,16.86,8.39a3.9,3.9,0,0,1-.26,5.43,3.85,3.85,0,0,1-5.43.06c-.82-.69-1.52-1.53-2.3-2.29a11.66,11.66,0,0,0-8.3-3.54q-29.16,0-58.32,0c-3.1,0-4.57,1.52-4.58,4.66q0,15.39,0,30.79c0,3,1.5,4.56,4.42,4.56q50.55,0,101.12,0A6.64,6.64,0,0,0,354.45,263.43Z"/></svg>