<svg id="Layer_1" data-name="Layer 1" xmlns="http://www.w3.org/2000/svg" viewBox="0 0 576 576"><defs><style>.cls-1{fill:#8ac0cf;}.cls-2{fill:#2e3440;}.cls-3{fill:#82a1c0;}.cls-4{fill:#fff;}</style></defs><title>CAR</title><circle class="cls-1" cx="298.27" cy="289.25" r="176.29"/><path class="cls-2" d="M166.82,307.38V288.19c0-4.26,1.59-5.77,5.9-5.85,5.09-.08,10.2,0,15.26-.46,8.22-.68,15.6-3.81,22.42-8.36,10.73-7.15,21.42-14.34,32.23-21.37a36.6,36.6,0,0,1,19.66-5.93q16.43-.22,32.85,0c9.85.12,18.42,3.72,26,9.91,9.5,7.72,19.11,15.3,28.66,23a14.59,14.59,0,0,0,9.45,3.29q27.81,0,55.62,0c18.56,0,33.82,10.89,39.57,28.5a49.79,49.79,0,0,1,1.87,10.84c.31,3.33.1,6.71.08,10.08a22.69,22.69,0,0,1-23,23c-4.94,0-9.87,0-14.8,0a2.22,2.22,0,0,0-2.27,1.37A31.33,31.33,0,0,1,382,372.17a30.75,30.75,0,0,1-21.14-15.85,2.61,2.61,0,0,0-2.64-1.58q-46.51.06-93,0a2.67,2.67,0,0,0-2.75,1.65,31.35,31.35,0,0,1-32.66,16,30.9,30.9,0,0,1-22.92-16.37,2.09,2.09,0,0,0-2.14-1.3c-3.36.07-6.72,0-10.08,0a22.61,22.61,0,0,1-18.91-9.35c-2.66-3.54-5.85-6.79-7.22-11.11a31.82,31.82,0,0,1-1.59-8.22C166.66,319.86,166.82,313.62,166.82,307.38Zm9.2-16c-.06.53-.11.8-.11,1.06,0,11.39,0,22.77,0,34.16a11.82,11.82,0,0,0,2.22,6.86q2.67,3.78,5.56,7.4a11,11,0,0,0,7.06,4.3c3.15.41,6.36.37,9.55.5,1,.05,1.9,0,3,0-1.07-9.48,1.08-17.84,7.06-25a30.64,30.64,0,0,1,23-11.39A30.28,30.28,0,0,1,255,316.66c8.86,7.57,12.3,17.38,11.15,28.92H357c-2.53-21.92,15-36.28,30.85-36.3,8.09,0,15.3,2.35,21.36,7.68,8.6,7.56,11.94,17.25,10.79,28.64.62,0,1.1.11,1.57.11,4.07,0,8.14,0,12.2,0a13.12,13.12,0,0,0,2.58-.25c8-1.78,12.22-8.6,10.78-17.83-.66,0-1.35,0-2,0a66.1,66.1,0,0,1-6.62-.5c-10.18-1.69-18.23-11.33-18.24-21.72a4.53,4.53,0,0,1,4.82-4.92c3.52,0,7.05,0,10.57,0,.51,0,1-.06,2-.12-.68-.64-1-1-1.43-1.34a31.65,31.65,0,0,0-21.08-7.57c-18.33,0-36.65-.07-55,0a25.37,25.37,0,0,1-16.75-5.94c-9.51-7.71-19.11-15.31-28.66-23a31.71,31.71,0,0,0-20.06-7.3q-15.7-.11-31.39,0a29.06,29.06,0,0,0-16,4.7c-10.24,6.69-20.47,13.41-30.56,20.32A61,61,0,0,1,180,291.42C178.74,291.39,177.45,291.42,176,291.42Zm235.13,49.85a22.61,22.61,0,1,0-22.91,22.53A22.64,22.64,0,0,0,411.15,341.27ZM234.61,363.8a22.62,22.62,0,1,0-22.5-22.59A22.69,22.69,0,0,0,234.61,363.8Zm195.8-54.28c1.46,6.35,9.28,10.4,16.73,8.6-.81-2.51-1.55-5-2.47-7.47a2.21,2.21,0,0,0-1.63-1.08c-2.59-.11-5.18-.05-7.78-.05Z"/><path class="cls-3" d="M176,291.42c1.43,0,2.72,0,4,0a61,61,0,0,0,36.65-11.16c10.09-6.91,20.32-13.63,30.56-20.32a29.06,29.06,0,0,1,16-4.7q15.69-.09,31.39,0a31.71,31.71,0,0,1,20.06,7.3c9.55,7.66,19.15,15.26,28.66,23a25.37,25.37,0,0,0,16.75,5.94c18.32-.1,36.64,0,55,0A31.65,31.65,0,0,1,436.15,299c.39.33.75.7,1.43,1.34-.94.06-1.45.12-2,.12-3.52,0-7.05,0-10.57,0a4.53,4.53,0,0,0-4.82,4.92c0,10.39,8.06,20,18.24,21.72a66.1,66.1,0,0,0,6.62.5c.69.05,1.38,0,2,0,1.44,9.23-2.82,16.05-10.78,17.83a13.12,13.12,0,0,1-2.58.25c-4.06,0-8.13,0-12.2,0-.47,0-.95-.07-1.57-.11,1.15-11.39-2.19-21.08-10.79-28.64-6.06-5.33-13.27-7.7-21.36-7.68-15.85,0-33.38,14.38-30.85,36.3H266.17c1.15-11.54-2.29-21.35-11.15-28.92a30.28,30.28,0,0,0-21.63-7.33,30.64,30.64,0,0,0-23,11.39c-6,7.15-8.13,15.51-7.06,25-1.09,0-2,0-3,0-3.19-.13-6.4-.09-9.55-.5a11,11,0,0,1-7.06-4.3q-2.9-3.61-5.56-7.4a11.82,11.82,0,0,1-2.22-6.86c0-11.39,0-22.77,0-34.16C175.91,292.22,176,292,176,291.42Zm140.83-9.67-.38.46h-50V268.79h2c8.29,0,16.59.1,24.88,0,4.26-.07,8.09.7,11.59,3.32a4.48,4.48,0,1,0,5.09-7.38,22.42,22.42,0,0,0-14.29-5c-10.68,0-21.36,0-32,0a23.42,23.42,0,0,0-14.27,4.57c-2.85,2.07-5.73,4.1-8.59,6.14L223.32,283a4.47,4.47,0,0,0-2.11,4.6,4.29,4.29,0,0,0,3.14,3.6,8,8,0,0,0,2.25.22H328.72c.38,0,.76,0,1.14,0a4.44,4.44,0,0,0,4.09-3,4.07,4.07,0,0,0-1.09-4.77c-3.68-3.2-7.42-6.33-11.24-9.35a4.23,4.23,0,0,0-6.11.7,4.42,4.42,0,0,0,.24,6A4.88,4.88,0,0,0,316.85,281.75ZM275.45,305c1.52,0,3,0,4.55,0a4.51,4.51,0,0,0,0-9q-4.54-.09-9.1,0a4.47,4.47,0,0,0-4.46,4.44,4.53,4.53,0,0,0,4.5,4.58C272.42,305,273.94,305,275.45,305Z"/><path class="cls-4" d="M411.15,341.27a22.61,22.61,0,1,1-22.23-22.69A22.67,22.67,0,0,1,411.15,341.27Zm-22.62,18a18.1,18.1,0,1,0-18.08-18.12A18.12,18.12,0,0,0,388.53,359.29Z"/><path class="cls-4" d="M234.61,363.8a22.62,22.62,0,1,1,22.71-22.73A22.63,22.63,0,0,1,234.61,363.8Zm.09-4.51a18.1,18.1,0,1,0-18.09-18.11A18.12,18.12,0,0,0,234.7,359.29Z"/><path class="cls-4" d="M430.41,309.52h4.85c2.6,0,5.19-.06,7.78.05a2.21,2.21,0,0,1,1.63,1.08c.92,2.45,1.66,5,2.47,7.47C439.69,319.92,431.87,315.87,430.41,309.52Z"/><path class="cls-2" d="M275.45,305c-1.51,0-3,0-4.55,0a4.53,4.53,0,0,1-4.5-4.58,4.47,4.47,0,0,1,4.46-4.44q4.56-.1,9.1,0a4.51,4.51,0,0,1,0,9C278.49,305,277,305,275.45,305Z"/><path class="cls-2" d="M388.53,359.29a18.1,18.1,0,1,1,18.11-17.92A18.1,18.1,0,0,1,388.53,359.29Zm9.05-18a9,9,0,1,0-9.08,8.94A9.07,9.07,0,0,0,397.58,341.28Z"/><path class="cls-2" d="M234.7,359.29a18.1,18.1,0,1,1,18.11-17.92A18.11,18.11,0,0,1,234.7,359.29Zm.05-9.07a9,9,0,1,0-9.07-9.12A9.08,9.08,0,0,0,234.75,350.22Z"/><path class="cls-4" d="M257.18,270v12.24H240.61l-.19-.29Z"/><path class="cls-1" d="M397.58,341.28a9,9,0,1,1-9.07-9.12A9.1,9.1,0,0,1,397.58,341.28Z"/><path class="cls-1" d="M234.75,350.22a9,9,0,1,1,9-9A9.07,9.07,0,0,1,234.75,350.22Z"/><path class="cls-4" d="M139.21,291.85h-.07l-23.42-.33a5.2,5.2,0,0,1,.07-10.4h.08l23.42.32a5.21,5.21,0,0,1-.08,10.41Z"/><path class="cls-4" d="M139.21,314.62h0l-44.24-.33a5.21,5.21,0,0,1,0-10.41h0l44.23.33a5.21,5.21,0,0,1,0,10.41Z"/><path class="cls-4" d="M139.21,337.39H78.39a5.21,5.21,0,1,1,0-10.41h60.82a5.21,5.21,0,1,1,0,10.41Z"/><path class="cls-4" d="M266.39,269.08v13h50.74c.5-2.16-3.61-11.66-18.74-12.94Z"/><path class="cls-2" d="M316.85,281.75a4.88,4.88,0,0,1-1.1-.69,4.42,4.42,0,0,1-.24-6,4.23,4.23,0,0,1,6.11-.7c3.82,3,7.56,6.15,11.24,9.35a4.07,4.07,0,0,1,1.09,4.77,4.44,4.44,0,0,1-4.09,3c-.38,0-.76,0-1.14,0H226.6a8,8,0,0,1-2.25-.22,4.29,4.29,0,0,1-3.14-3.6,4.47,4.47,0,0,1,2.11-4.6l17.58-12.56c2.86-2,5.74-4.07,8.59-6.14a23.42,23.42,0,0,1,14.27-4.57c10.68,0,21.36,0,32,0a22.42,22.42,0,0,1,14.29,5,4.48,4.48,0,1,1-5.09,7.38c-3.5-2.62-7.33-3.39-11.59-3.32-8.29.14-16.59,0-24.88,0h-2v13.42h50ZM257.18,270l-16.76,11.95.19.29h16.57Z"/></svg>