<svg id="Layer_1" data-name="Layer 1" xmlns="http://www.w3.org/2000/svg" viewBox="0 0 576 576"><defs><style>.cls-1{fill:#82a1c0;}.cls-2{fill:#fff;}.cls-3{fill:#2e3440;}.cls-4{fill:#b37a6c;}.cls-5{fill:#8ac0cf;}</style></defs><title>CAR</title><circle class="cls-1" cx="284.17" cy="289.25" r="176.29"/><path class="cls-2" d="M391.14,317.75a23.75,23.75,0,1,1-23.75,23.52A23.8,23.8,0,0,1,391.14,317.75Zm-.06,41.56a17.81,17.81,0,1,0-17.74-17.82A17.84,17.84,0,0,0,391.08,359.31Z"/><path class="cls-2" d="M462.25,299.86c-3.75,0-7.35.22-10.9-.11a6.16,6.16,0,0,1-4.05-2.36,97.12,97.12,0,0,1-4.85-9.14h19.8Z"/><path class="cls-3" d="M301.89,288c-2,0-3.92.07-5.87,0a5.92,5.92,0,0,1,0-11.84q6-.14,12,0a5.88,5.88,0,0,1,5.88,5.8,5.94,5.94,0,0,1-5.89,6C306,288.09,303.92,288,301.89,288Z"/><path class="cls-3" d="M391.08,359.31A17.81,17.81,0,1,1,409,341.39,17.85,17.85,0,0,1,391.08,359.31Zm.08-11.9a5.91,5.91,0,1,0-5.93-5.94A6,6,0,0,0,391.16,347.41Z"/><path class="cls-2" d="M302.2,228.75c.84-.05,1.6-.13,2.36-.13,12,0,24,0,35.93,0,3.49,0,5.76,1.33,7.1,4.59,2.2,5.34,4.58,10.61,6.83,15.94,2.16,5.14-.5,9.17-6.07,9.18q-22.07,0-44.15,0c-.61,0-1.22-.06-2-.1Z"/><path class="cls-2" d="M290,228.62V258.2a58.19,58.19,0,0,1-6.88-.05,5.55,5.55,0,0,1-4.77-5.36q-.17-9.28,0-18.56a5.73,5.73,0,0,1,5.14-5.53,24.09,24.09,0,0,1,2.82-.08Z"/><path class="cls-4" d="M391.16,347.41a5.91,5.91,0,1,1,5.89-6A5.94,5.94,0,0,1,391.16,347.41Z"/><path class="cls-3" d="M248.52,258.31v-4c0-8.38,0-16.75,0-25.13.09-17.31,13-30.21,30.37-30.25,22,0,44-.12,66,0,13.21.09,22.69,6.36,27.91,18.51,4.1,9.55,7.78,19.27,11.66,28.91,3.16,7.82,9.18,11.93,17.6,12,14.09,0,28.18,0,42.27,0a29.47,29.47,0,0,1,28.87,21.81,30.33,30.33,0,0,1,1.12,8.1c.11,15.65.09,31.31,0,47a17.82,17.82,0,0,1-18.11,18.18c-9.63.05-19.26.06-28.89,0a3.24,3.24,0,0,0-3.61,2.34,35.51,35.51,0,0,1-65.27-.11,3,3,0,0,0-3.21-2.23q-71.06.08-142.09,0a3.07,3.07,0,0,0-3.3,2.15c-6.37,13.8-17.24,21.42-32.42,21.52s-26.27-7.48-32.82-21.28c-.83-1.74-1.64-2.43-3.6-2.41-9.47.11-18.95-.11-28.42.09a18.43,18.43,0,0,1-18.69-18.65c.24-23.09.17-46.18,0-69.27,0-4.9,3.37-7.28,7.4-7.28q71.86.17,143.73.07Zm208.36,17.83c.06-.21.12-.42.19-.63a16.93,16.93,0,0,0-12.72-5.29c-14.48,0-29,.22-43.45-.09-12.59-.27-21.76-6.42-26.83-18-4.19-9.5-7.82-19.25-11.72-28.89-3.49-8.62-9.15-12.47-18.39-12.47q-32.29,0-64.59,0c-11.47,0-18.94,7.49-18.95,19q0,54.48,0,109v2.59H337.5c.08-.75.16-1.36.19-2a51.63,51.63,0,0,1,5.58-21.63c9.07-17.44,23.51-27.22,42.94-29.5a50.77,50.77,0,0,1,24.85,3.62,5.89,5.89,0,0,1,3.89,6.5,5.56,5.56,0,0,1-4.92,4.93,10.06,10.06,0,0,1-4.3-.75,41.66,41.66,0,0,0-53.73,25,34.11,34.11,0,0,0-2.31,13.84h5.69c.42-9.65,3.63-18.1,10.47-24.94a34.81,34.81,0,0,1,25.07-10.55,34.3,34.3,0,0,1,22,7.45c9.05,7.09,13.47,16.6,14,28h5.7a34.49,34.49,0,0,0-1.77-12.06,40.63,40.63,0,0,0-8.19-14.9c-1.54-1.83-2.34-3.89-1.43-6.3,1.66-4.4,7-5.35,10.25-1.65A51.53,51.53,0,0,1,444,333.77c.34,2.53.61,5.07.91,7.57a7.75,7.75,0,0,0,.86.14c3.29,0,6.57,0,9.86,0,4.48,0,6.82-2.33,6.84-6.78q0-10.33,0-20.67c0-.68-.1-1.35-.17-2.24-3.67,0-7.18.11-10.69,0-6.58-.25-11.81-3.15-15-8.93s-6.14-11.78-9-17.79c-2.25-4.75.54-8.86,5.87-8.9,6,0,12.06,0,18.09,0ZM248.36,341.35V270.41H106.08v5.75c2.33,0,4.51-.07,6.68,0A18,18,0,0,1,129.6,292c.9,8.8-4.75,17.21-13.18,19.1-3.31.74-6.8.72-10.25,1.05,0,.07-.18.2-.18.34,0,7.9-.1,15.8,0,23.7a5.29,5.29,0,0,0,4.71,5.14c4.26.27,8.55.08,12.82.08a53.87,53.87,0,0,1,51.36-53.33,52.08,52.08,0,0,1,35.74,11.77c13.11,10.62,19.55,24.63,20.2,41.52Zm142.78-23.6a23.75,23.75,0,1,0,23.75,23.75A23.79,23.79,0,0,0,391.14,317.75Zm-213.88,47.5a23.75,23.75,0,1,0-23.79-23.69A23.78,23.78,0,0,0,177.26,365.25Zm-35.95-23.9c1.11-23,19-34.47,33.18-35.41A34.8,34.8,0,0,1,197.16,312c10.22,7.05,15.23,17.06,15.84,29.31h5.85c-.72-15.42-7.18-27.35-20.21-35.38a41,41,0,0,0-46.12,2.17c-11,8.27-16.46,19.38-16.88,33.23Zm320.94-41.49V288.25h-19.8a97.12,97.12,0,0,0,4.85,9.14,6.16,6.16,0,0,0,4.05,2.36C454.9,300.08,458.5,299.86,462.25,299.86Zm-356.19-11.8V299.9c1.07,0,2,0,2.91,0a29.1,29.1,0,0,0,3.74-.1,5.9,5.9,0,0,0-.51-11.72C110.26,288,108.31,288.06,106.06,288.06Z"/><path class="cls-5" d="M456.88,276.14h-5.33c-6,0-12.06,0-18.09,0-5.33,0-8.12,4.15-5.87,8.9,2.84,6,5.76,12,9,17.79s8.43,8.68,15,8.93c3.51.14,7,0,10.69,0,.07.89.17,1.56.17,2.24q0,10.33,0,20.67c0,4.45-2.36,6.76-6.84,6.78-3.29,0-6.57,0-9.86,0a7.75,7.75,0,0,1-.86-.14c-.3-2.5-.57-5-.91-7.57a51.53,51.53,0,0,0-12.5-27.32c-3.21-3.7-8.59-2.75-10.25,1.65-.91,2.41-.11,4.47,1.43,6.3a40.63,40.63,0,0,1,8.19,14.9,34.49,34.49,0,0,1,1.77,12.06h-5.7c-.51-11.43-4.93-20.94-14-28a34.3,34.3,0,0,0-22-7.45,34.81,34.81,0,0,0-25.07,10.55c-6.84,6.84-10.05,15.29-10.47,24.94h-5.69A34.11,34.11,0,0,1,352,327.53a41.66,41.66,0,0,1,53.73-25,10.06,10.06,0,0,0,4.3.75,5.56,5.56,0,0,0,4.92-4.93,5.89,5.89,0,0,0-3.89-6.5,50.77,50.77,0,0,0-24.85-3.62c-19.43,2.28-33.87,12.06-42.94,29.5a51.63,51.63,0,0,0-5.58,21.63c0,.61-.11,1.22-.19,2H260.42v-2.59q0-54.49,0-109c0-11.49,7.48-19,18.95-19q32.29,0,64.59,0c9.24,0,14.9,3.85,18.39,12.47,3.9,9.64,7.53,19.39,11.72,28.89,5.07,11.55,14.24,17.7,26.83,18,14.48.31,29,.06,43.45.09a16.93,16.93,0,0,1,12.72,5.29C457,275.72,456.94,275.93,456.88,276.14Zm-140.17-5.93c10.64,0,21.28,0,31.92,0,13.82-.07,22.16-12.69,16.84-25.46-2.34-5.62-4.68-11.25-7.19-16.8-3.26-7.24-8.92-11.16-16.92-11.2q-28.64-.11-57.27,0a17.73,17.73,0,0,0-17.73,17.8c-.06,5.63,0,11.27,0,16.9,0,11.15,7.57,18.74,18.68,18.76C295.59,270.23,306.15,270.21,316.71,270.21ZM301.89,288c2,0,4.06.07,6.09,0a5.94,5.94,0,0,0,5.89-6,5.88,5.88,0,0,0-5.88-5.8q-6-.14-12,0A5.92,5.92,0,0,0,296,288C298,288.09,299.93,288,301.89,288Z"/><path class="cls-5" d="M248.36,341.35H230.83c-.65-16.89-7.09-30.9-20.2-41.52a52.08,52.08,0,0,0-35.74-11.77,53.87,53.87,0,0,0-51.36,53.33c-4.27,0-8.56.19-12.82-.08a5.29,5.29,0,0,1-4.71-5.14c-.11-7.9,0-15.8,0-23.7,0-.14.15-.27.18-.34,3.45-.33,6.94-.31,10.25-1.05,8.43-1.89,14.08-10.3,13.18-19.1a18,18,0,0,0-16.84-15.81c-2.17-.08-4.35,0-6.68,0v-5.75H248.36Z"/><path class="cls-2" d="M177.26,365.25a23.75,23.75,0,1,1,23.7-24A23.74,23.74,0,0,1,177.26,365.25Zm0-41.56A17.81,17.81,0,1,0,195,341.22,17.88,17.88,0,0,0,177.24,323.69Z"/><path class="cls-5" d="M141.31,341.35h-5.67c.42-13.85,5.9-25,16.88-33.23A41,41,0,0,1,198.64,306c13,8,19.49,20,20.21,35.38H213c-.61-12.25-5.62-22.26-15.84-29.31a34.8,34.8,0,0,0-22.67-6.08C160.34,306.88,142.42,318.39,141.31,341.35Z"/><path class="cls-2" d="M106.06,288.06c2.25,0,4.2-.09,6.14,0a5.9,5.9,0,0,1,.51,11.72,29.1,29.1,0,0,1-3.74.1c-.92,0-1.84,0-2.91,0Z"/><path class="cls-3" d="M316.71,270.21c-10.56,0-21.12,0-31.68,0-11.11,0-18.65-7.61-18.68-18.76,0-5.63-.05-11.27,0-16.9a17.73,17.73,0,0,1,17.73-17.8q28.64-.11,57.27,0c8,0,13.66,4,16.92,11.2,2.51,5.55,4.85,11.18,7.19,16.8,5.32,12.77-3,25.39-16.84,25.46C338,270.25,327.35,270.21,316.71,270.21ZM302.2,228.75v29.46c.78,0,1.39.1,2,.1q22.08,0,44.15,0c5.57,0,8.23-4,6.07-9.18-2.25-5.33-4.63-10.6-6.83-15.94-1.34-3.26-3.61-4.61-7.1-4.59-12,.08-23.95,0-35.93,0C303.8,228.62,303,228.7,302.2,228.75ZM290,228.62h-3.7a24.09,24.09,0,0,0-2.82.08,5.73,5.73,0,0,0-5.14,5.53q-.15,9.28,0,18.56a5.55,5.55,0,0,0,4.77,5.36,58.19,58.19,0,0,0,6.88.05Z"/><path class="cls-3" d="M177.24,323.69a17.81,17.81,0,1,1-17.84,18A17.85,17.85,0,0,1,177.24,323.69Zm5.88,17.8a5.91,5.91,0,1,0-6,5.92A6,6,0,0,0,183.12,341.49Z"/></svg>