<svg id="Layer_1" data-name="Layer 1" xmlns="http://www.w3.org/2000/svg" viewBox="0 0 576 576"><defs><style>.cls-1{fill:#8ac0cf;}.cls-2{fill:#fff;}.cls-3{fill:#2e3440;}.cls-4{fill:#82a1c0;}.cls-5{fill:#ce8773;}</style></defs><title>CAR</title><circle class="cls-1" cx="289.25" cy="289.25" r="176.29"/><path class="cls-2" d="M416.33,356h4.3c9.12,0,14.64-5.46,14.65-14.5q0-21.18,0-42.36c0-13.92-9.54-23.4-23.49-23.41q-21.6,0-43.19,0c-5.21,0-6-.57-7.38-5.59q-5.62-19.8-11.28-39.59c-2.74-9.58-9-15.37-18.87-17a57.55,57.55,0,0,0-7-.36v-8.77c1.43,0,2.63,0,3.84,0,2.87-.11,4.76-1.83,4.82-4.34s-1.88-4.45-4.88-4.57c-.55,0-1.11,0-1.67,0h-134c-.75,0-1.49,0-2.23,0a4.43,4.43,0,0,0,0,8.86c1.44.11,2.91,0,4.45,0v8.79c-11.81,1.52-17.67,8.23-17.68,20.06v9.1c-1.11-.44-1.95-.79-2.8-1.1-11.38-4.23-23.75,3.95-23.89,16.09-.19,18.21-.12,36.42,0,54.62a17.65,17.65,0,0,0,13.73,16.84c4.47,1.07,8.62.16,13-1.85,0,5.38,0,10.45,0,15.52A13.18,13.18,0,0,0,181.52,353c3.26,2.79,7.16,3.38,11.25,3.05,2.06-.17,3,.43,3.71,2.55a35.49,35.49,0,0,0,67.28.1c.75-2.23,1.8-2.67,3.93-2.67q38.31.12,76.63,0c2.25,0,3.12.65,3.85,2.78,8.58,25,40.42,32.19,59,13.38A37.2,37.2,0,0,0,416.33,356Z"/><path class="cls-3" d="M416.33,356a37.2,37.2,0,0,1-9.18,16.1c-18.56,18.81-50.4,11.62-59-13.38-.73-2.13-1.6-2.79-3.85-2.78q-38.31.13-76.63,0c-2.13,0-3.18.44-3.93,2.67a35.49,35.49,0,0,1-67.28-.1c-.7-2.12-1.65-2.72-3.71-2.55-4.09.33-8-.26-11.25-3.05a13.18,13.18,0,0,1-4.88-10.49c0-5.07,0-10.14,0-15.52-4.36,2-8.51,2.92-13,1.85A17.65,17.65,0,0,1,149.92,312c-.1-18.2-.17-36.41,0-54.62.14-12.14,12.51-20.32,23.89-16.09.85.31,1.69.66,2.8,1.1v-9.1c0-11.83,5.87-18.54,17.68-20.06V204.4c-1.54,0-3,.09-4.45,0a4.43,4.43,0,0,1,0-8.86c.74-.06,1.48,0,2.23,0h134c.56,0,1.12,0,1.67,0,3,.12,4.95,1.95,4.88,4.57s-1.95,4.23-4.82,4.34c-1.21.05-2.41,0-3.84,0v8.77a57.55,57.55,0,0,1,7,.36c9.87,1.66,16.13,7.45,18.87,17q5.69,19.78,11.28,39.59c1.43,5,2.17,5.59,7.38,5.59q21.6,0,43.19,0c13.95,0,23.46,9.49,23.49,23.41q0,21.18,0,42.36c0,9-5.53,14.48-14.65,14.5ZM194.24,347.1c1.32-23.83,19.84-35.52,35.51-35.71,15.84-.2,34.92,11.47,36.33,35.56h79.81c1.22-23.14,19.05-35.13,34.67-35.5a34.79,34.79,0,0,1,23.73,8c8.57,7.07,12.82,16.35,13.26,27.62h2.89c4.39,0,5.89-1.47,5.91-5.8,0-2.88,0-5.76,0-8.64V320.56c-12.13-1.09-17.44-4.65-17.65-12.41a17,17,0,0,1,2.44-8.86c3.08-5.06,8.4-6.15,14.14-5.67-2.06-5.75-6.69-8.9-12.86-8.91-14.77,0-29.54,0-44.31,0-8.61,0-13-3.31-15.33-11.61-3.87-13.55-7.72-27.11-11.65-40.65-1.9-6.55-6.77-10.13-13.6-10.16-5.2,0-10.4,0-15.61,0-4.83,0-9.67.19-14.48-.12a6.14,6.14,0,0,1-4.19-2.46,4.5,4.5,0,0,1,.27-4.27,6.84,6.84,0,0,1,4.5-2c5.54-.23,11.08-.09,16.65-.09v-8.77h-31c0,1.32,0,2.5,0,3.69,0,15.33,1.27,14-14.15,14H196.23c-7.41,0-10.67,3.27-10.67,10.72V340.56c0,.65,0,1.3,0,1.95a4.45,4.45,0,0,0,4.58,4.58C191.45,347.16,192.75,347.1,194.24,347.1Zm9.16,0a26.75,26.75,0,1,0,26.79-26.7A26.81,26.81,0,0,0,203.4,347.07Zm205.11.16a26.75,26.75,0,1,0-27.16,26.63A26.8,26.8,0,0,0,408.51,347.23ZM158.81,284.4c0,8.73,0,17.45,0,26.18,0,5.7,3.69,9.72,8.83,9.76s9-4,9-9.61q0-26,0-52.09c0-5.64-3.81-9.65-9-9.62s-8.82,4-8.84,9.75C158.79,267.31,158.81,275.86,158.81,284.4Zm44.79-79.85v8.57h30.85v-8.57Zm71,.06H243.76v8.58H274.6ZM426.17,311.28V302.7c-6.07-.52-8.69.8-8.7,4.27S420.06,311.76,426.17,311.28Z"/><path class="cls-4" d="M194.24,347.1c-1.49,0-2.79.06-4.08,0a4.45,4.45,0,0,1-4.58-4.58c0-.65,0-1.3,0-1.95V233c0-7.45,3.26-10.72,10.67-10.72h73.29c15.42,0,14.18,1.32,14.15-14,0-1.19,0-2.37,0-3.69h31v8.77c-5.57,0-11.11-.14-16.65.09a6.84,6.84,0,0,0-4.5,2,4.5,4.5,0,0,0-.27,4.27,6.14,6.14,0,0,0,4.19,2.46c4.81.31,9.65.12,14.48.12,5.21,0,10.41,0,15.61,0,6.83,0,11.7,3.61,13.6,10.16,3.93,13.54,7.78,27.1,11.65,40.65,2.37,8.3,6.72,11.61,15.33,11.61,14.77,0,29.54,0,44.31,0,6.17,0,10.8,3.16,12.86,8.91-5.74-.48-11.06.61-14.14,5.67a17,17,0,0,0-2.44,8.86c.21,7.76,5.52,11.32,17.65,12.41v12.11c0,2.88,0,5.76,0,8.64,0,4.33-1.52,5.78-5.91,5.8h-2.89c-.44-11.27-4.69-20.55-13.26-27.62a34.79,34.79,0,0,0-23.73-8c-15.62.37-33.45,12.36-34.67,35.5H266.08c-1.41-24.09-20.49-35.76-36.33-35.56C214.08,311.58,195.56,323.27,194.24,347.1ZM230,284.69c7.15,0,14.3,0,21.45,0,8.74,0,14.33-5.56,14.36-14.22q0-12.54,0-25.08c0-8.67-5.62-14.21-14.35-14.22H208.84c-8.73,0-14.34,5.57-14.37,14.22q0,12.53,0,25.07c0,8.66,5.63,14.2,14.36,14.23C215.89,284.71,223,284.69,230,284.69Zm78.73,0h20.05c10.56,0,16.56-7.82,13.87-18.06-2.16-8.25-4.38-16.48-6.6-24.71-1.9-7-6.71-10.73-14-10.75q-16.57,0-33.15,0c-8.53,0-14.16,5.61-14.19,14.1s0,16.9,0,25.34,5.68,14.05,14.22,14.08C295.55,284.71,302.15,284.69,308.74,284.69ZM221,298c1.66,0,3.33.11,5,0a4.38,4.38,0,0,0,4.13-4.41,4.3,4.3,0,0,0-4.12-4.39c-3.13-.16-6.29-.15-9.42,0a4.34,4.34,0,0,0-4.26,4.27,4.41,4.41,0,0,0,4.26,4.57C218.05,298.14,219.54,298.05,221,298Zm80.54-8.86a39.38,39.38,0,0,0-5,0,4.2,4.2,0,0,0-4,4.25,4.24,4.24,0,0,0,4,4.52,95.1,95.1,0,0,0,9.7,0,4.32,4.32,0,0,0,4.12-4.4,4.39,4.39,0,0,0-4.13-4.41C304.71,289.06,303.13,289.17,301.56,289.18Z"/><path class="cls-2" d="M203.4,347.07a26.75,26.75,0,1,1,26.7,26.79A26.79,26.79,0,0,1,203.4,347.07Zm44.58.2A17.84,17.84,0,1,0,229.92,365,17.86,17.86,0,0,0,248,347.27Z"/><path class="cls-2" d="M408.51,347.23a26.75,26.75,0,1,1-26.34-26.86A26.84,26.84,0,0,1,408.51,347.23ZM381.89,365a17.84,17.84,0,1,0-18-17.78A17.86,17.86,0,0,0,381.89,365Z"/><path class="cls-2" d="M158.81,284.4c0-8.54,0-17.09,0-25.63,0-5.71,3.67-9.71,8.84-9.75s9,4,9,9.62q0,26,0,52.09c0,5.63-3.81,9.65-9,9.61s-8.81-4.06-8.83-9.76C158.79,301.85,158.81,293.13,158.81,284.4Z"/><path class="cls-2" d="M203.6,204.55h30.85v8.57H203.6Z"/><path class="cls-2" d="M274.6,204.61v8.58H243.76v-8.58Z"/><path class="cls-3" d="M230,284.69c-7.06,0-14.12,0-21.18,0-8.73,0-14.33-5.57-14.36-14.23q0-12.54,0-25.07c0-8.65,5.64-14.21,14.37-14.22h42.63c8.73,0,14.33,5.55,14.35,14.22q0,12.54,0,25.08c0,8.66-5.62,14.19-14.36,14.22C244.31,284.71,237.16,284.69,230,284.69Zm.11-44.59c-7.05,0-14.11,0-21.17,0-4,0-5.53,1.56-5.54,5.58q0,12.26,0,24.52c0,4,1.57,5.54,5.59,5.54q21.17,0,42.34,0c4,0,5.54-1.58,5.55-5.59q0-12.26,0-24.51c0-4-1.58-5.53-5.59-5.55C244.24,240.08,237.18,240.1,230.12,240.1Z"/><path class="cls-3" d="M308.74,284.69c-6.59,0-13.19,0-19.78,0-8.54,0-14.18-5.61-14.22-14.08s0-16.89,0-25.34,5.66-14.08,14.19-14.1q16.57,0,33.15,0c7.27,0,12.08,3.72,14,10.75,2.22,8.23,4.44,16.46,6.6,24.71,2.69,10.24-3.31,18-13.87,18.06Zm.39-8.93c6.68,0,13.37,0,20.05,0,4.13,0,6-2.39,4.94-6.36q-3.25-12.51-6.65-25c-.88-3.28-2.21-4.3-5.52-4.3q-16.44,0-32.86,0c-3.82,0-5.4,1.6-5.41,5.42q0,12.39,0,24.78c0,3.83,1.59,5.42,5.41,5.44C295.77,275.78,302.45,275.76,309.13,275.76Z"/><path class="cls-3" d="M221,298c-1.48,0-3,.1-4.43,0a4.41,4.41,0,0,1-4.26-4.57,4.34,4.34,0,0,1,4.26-4.27c3.13-.13,6.29-.14,9.42,0a4.3,4.3,0,0,1,4.12,4.39A4.38,4.38,0,0,1,226,298C224.35,298.15,222.68,298,221,298Z"/><path class="cls-3" d="M301.56,289.17c1.57,0,3.15-.11,4.71,0a4.39,4.39,0,0,1,4.13,4.41,4.32,4.32,0,0,1-4.12,4.4,95.1,95.1,0,0,1-9.7,0,4.24,4.24,0,0,1-4-4.52,4.2,4.2,0,0,1,4-4.25A41.34,41.34,0,0,1,301.56,289.17Z"/><path class="cls-3" d="M248,347.27a17.84,17.84,0,1,1-17.75-18A17.86,17.86,0,0,1,248,347.27Zm-17.74-9a8.9,8.9,0,1,0,8.81,8.92A8.94,8.94,0,0,0,230.24,338.22Z"/><path class="cls-3" d="M381.89,365a17.84,17.84,0,1,1,17.71-18A17.86,17.86,0,0,1,381.89,365Zm-.18-26.73a8.9,8.9,0,1,0,9,8.77A8.94,8.94,0,0,0,381.71,338.22Z"/><path class="cls-2" d="M230.12,240.1c7.06,0,14.12,0,21.18,0,4,0,5.58,1.56,5.59,5.55q0,12.25,0,24.51c0,4-1.57,5.59-5.55,5.59q-21.17,0-42.34,0c-4,0-5.58-1.56-5.59-5.54q0-12.25,0-24.52c0-4,1.55-5.57,5.54-5.58C216,240.08,223.07,240.1,230.12,240.1Z"/><path class="cls-5" d="M230.24,338.22a8.9,8.9,0,1,1-9,8.73A8.94,8.94,0,0,1,230.24,338.22Z"/><path class="cls-5" d="M381.71,338.22a8.9,8.9,0,1,1-8.84,8.88A8.94,8.94,0,0,1,381.71,338.22Z"/></svg>