<svg id="Layer_1" data-name="Layer 1" xmlns="http://www.w3.org/2000/svg" viewBox="0 0 576 576"><defs><style>.cls-1{fill:#82a1c0;}.cls-2{fill:#8ac0cf;}.cls-3{fill:#fff;}.cls-4{fill:#2e3440;}</style></defs><title>CAR</title><circle class="cls-1" cx="288" cy="288" r="176.4"/><path class="cls-2" d="M140.47,309.57h0c0,5.47-.08,10.95,0,16.42.19,10.92,7.93,20.44,18.7,22,6.22.9,12.63.5,19,.57a3.33,3.33,0,0,1,3.37,1.88c12.71,22.15,43.42,22.13,56.2,0a3.06,3.06,0,0,1,3.08-1.87c31.49.05,63,0,94.46.11a3.89,3.89,0,0,1,2.79,1.68c13.06,22.26,43.47,22.3,56.42,0a3.06,3.06,0,0,1,3.16-1.75c5.09.07,10.18.1,15.26,0,10.94-.23,20.46-7.95,22-18.75a108.31,108.31,0,0,0,.5-20.38c-.9-17.39-9.28-30.25-25.46-36.77-7.42-3-15.77-3.77-23.76-5.28-5.05-1-8.89-3.27-11.4-7.83-2.17-3.95-4.38-7.88-6.75-11.71q-20.48-33-57.93-43.48c-12.39-3.47-25-3.44-37.7-3.27q-41,.54-69.82,29.74c-8.41,8.5-14.28,18.73-20,29.07A15.48,15.48,0,0,1,172,268c-4.49,1-8.93,2.21-13.39,3.34-11.21,2.86-18,11.64-18.09,23.26C140.45,299.59,140.47,304.58,140.47,309.57Z"/><path class="cls-3" d="M186.58,334.78a23,23,0,1,1,22.82,23A23.06,23.06,0,0,1,186.58,334.78Zm9.22-.27A13.82,13.82,0,1,0,210,320.94,13.88,13.88,0,0,0,195.8,334.51Z"/><path class="cls-3" d="M366.32,311.73a23,23,0,1,1-23,23.09A23.06,23.06,0,0,1,366.32,311.73Zm0,36.84a13.82,13.82,0,1,0-13.78-13.7A13.87,13.87,0,0,0,366.29,348.57Z"/><path class="cls-3" d="M149.93,293.4h7.58c-.73,3-1.43,5.94-2.16,9h-5.42Z"/><path class="cls-3" d="M264.78,224.29v36.52H212.29C218.31,243.18,239,225,264.78,224.29Z"/><path class="cls-3" d="M292.5,223.43V261h54C340.3,242.86,319.08,224.14,292.5,223.43Z"/><path class="cls-3" d="M209.72,339.34a4.59,4.59,0,1,1,4.47-4.7A4.62,4.62,0,0,1,209.72,339.34Z"/><path class="cls-3" d="M366.36,367.34a4.59,4.59,0,1,1,4.54-4.63A4.61,4.61,0,0,1,366.36,367.34Z"/><path class="cls-3" d="M409,293.29c3.67,0,7.1-.09,10.52.06a3.34,3.34,0,0,1,2.43,1.39c1.26,2.31,2.23,4.79,3.33,7.26C418,303.7,411,300,409,293.29Z"/><path class="cls-4" d="M205,284c-1.62,0-3.25.1-4.87,0a4.55,4.55,0,0,1-4.36-4.46,4.49,4.49,0,0,1,4.44-4.67c3.14-.14,6.3-.13,9.45,0a4.51,4.51,0,0,1,4.51,4.61,4.58,4.58,0,0,1-4.58,4.55c-1.53.09-3.06,0-4.59,0Z"/><path class="cls-4" d="M140.47,309.57c0-5,0-10,0-15,.05-11.62,6.88-20.4,18.09-23.26C163,270.21,167.46,269,172,268a15.48,15.48,0,0,0,10.6-8.09c5.71-10.34,11.58-20.57,20-29.07q28.85-29.15,69.82-29.74c12.67-.17,25.31-.2,37.7,3.27q37.45,10.49,57.93,43.48c2.37,3.83,4.58,7.76,6.75,11.71,2.51,4.56,6.35,6.87,11.4,7.83,8,1.51,16.34,2.28,23.76,5.28,16.18,6.52,24.56,19.38,25.46,36.77a108.31,108.31,0,0,1-.5,20.38c-1.51,10.8-11,18.52-22,18.75-5.08.1-10.17.07-15.26,0a3.06,3.06,0,0,0-3.16,1.75c-13,22.33-43.36,22.29-56.42,0a3.89,3.89,0,0,0-2.79-1.68c-31.48-.09-63-.06-94.46-.11a3.06,3.06,0,0,0-3.08,1.87c-12.78,22.14-43.49,22.16-56.2,0a3.33,3.33,0,0,0-3.37-1.88c-6.32-.07-12.73.33-19-.57-10.77-1.56-18.51-11.08-18.7-22-.1-5.47,0-10.95,0-16.42Zm9.24,2.15c0,4.9-.08,9.48,0,14.07.14,6.76,4.94,12.61,11.65,13.31,5.29.55,10.69.11,16,.11.18-21.67,11.58-35.65,29.89-36.84a31.17,31.17,0,0,1,22.74,7.2c9.26,7.69,12.75,17.83,11.68,29.66h92.36c.64-22.54,12.15-36.21,31-36.92a31,31,0,0,1,22.27,7.78c8.8,7.69,12.11,17.62,11,29.23,5.26,0,10.25.2,15.21-.05,5.81-.3,11.21-4.52,12-10.3.74-5.6.16-11.38.16-17.28-1.72,0-3.53.07-5.34,0-11.74-.54-21.55-10.46-21.8-22-.08-3.73,1.6-5.54,5.29-5.61,2.43-.05,4.86,0,7.29,0l.15-.71c-2-1-4-2.27-6.15-2.8a122.12,122.12,0,0,0-16.31-3.31c-11-1.15-19.22-6-23.95-16.25a76.13,76.13,0,0,0-4.43-7.74q-18.81-30.78-53.65-40.18c-11.77-3.18-23.77-3-35.75-2.69-24.27.53-44.9,9.63-62,26.9-7.87,8-13.24,17.6-18.6,27.25a24.18,24.18,0,0,1-16.16,12.37c-4.85,1.17-9.7,2.31-14.48,3.71a34.16,34.16,0,0,0-5.5,2.7l.35.76c2.88,0,5.76-.1,8.63,0,3.34.14,5.31,2.64,4.55,5.88-1.4,6-2.93,11.91-4.45,17.86a4.72,4.72,0,0,1-5,3.89Zm36.87,23.06a23,23,0,1,0,23.08-23A23.07,23.07,0,0,0,186.58,334.78Zm179.74-23a23,23,0,1,0,23,22.81A23.06,23.06,0,0,0,366.32,311.73ZM409,293.29c2,6.67,9,10.41,16.28,8.71-1.1-2.47-2.07-4.95-3.33-7.26a3.34,3.34,0,0,0-2.43-1.39C416.06,293.2,412.63,293.29,409,293.29Zm-259,.11v9h5.42c.73-3,1.43-5.92,2.16-9Z"/><path class="cls-4" d="M237.27,270.24h-30.8c-5.28,0-7.05-2.71-5.27-7.62,7-19.24,19.35-33.53,38.18-41.92a67.76,67.76,0,0,1,29.38-5.78c3.71.08,5.37,1.75,5.38,5.56q0,22.16,0,44.32c0,3.74-1.72,5.42-5.49,5.43C258.18,270.26,247.72,270.24,237.27,270.24Zm27.51-46c-25.83.7-46.47,18.89-52.49,36.52h52.49Z"/><path class="cls-4" d="M292.73,224.27v36.54H345.5a57.76,57.76,0,0,0-12.3-18.63c-.74-.76-1.54-1.45-2.25-2.23-1.9-2.11-2-4.57-.25-6.46a4.38,4.38,0,0,1,6.64,0,153.33,153.33,0,0,1,12.37,15.43c2.82,4.26,4.62,9.23,6.64,14,1.88,4.45-.16,7.35-5,7.35q-29.22,0-58.45,0c-1.54,0-3.07.05-4.61,0-3.07-.13-4.88-1.81-4.89-4.85q-.08-22.76,0-45.5c0-3.2,1.83-4.88,5.1-4.94a69.28,69.28,0,0,1,33,7.44c3,1.54,4.06,4,2.78,6.54s-3.85,3.19-6.91,1.67a62.72,62.72,0,0,0-22.86-6.3C294,224.23,293.43,224.27,292.73,224.27Z"/><path class="cls-4" d="M292.42,312.05c-1.52,0-3.06.09-4.58,0a4.55,4.55,0,0,1-4.46-4.66,4.45,4.45,0,0,1,4.33-4.47c3.24-.15,6.5-.15,9.74,0a4.47,4.47,0,0,1,4.33,4.49,4.57,4.57,0,0,1-4.49,4.64C295.68,312.14,294.05,312.05,292.42,312.05Z"/><path class="cls-4" d="M195.8,334.51a13.82,13.82,0,1,1,13.43,14.06A13.88,13.88,0,0,1,195.8,334.51Zm13.92,4.83a4.59,4.59,0,1,0-4.69-4.47A4.65,4.65,0,0,0,209.72,339.34Z"/><path class="cls-4" d="M366.29,348.57a13.82,13.82,0,1,1,13.85-13.93A13.87,13.87,0,0,1,366.29,348.57Zm.07-9.23a4.59,4.59,0,1,0-4.62-4.53A4.63,4.63,0,0,0,366.36,339.34Z"/></svg>